<?xml version="1.0" standalone="no"?>
<!DOCTYPE svg PUBLIC "-//W3C//DTD SVG 20010904//EN"
 "http://www.w3.org/TR/2001/REC-SVG-20010904/DTD/svg10.dtd">
<svg version="1.0" xmlns="http://www.w3.org/2000/svg"
 width="1080.000000pt" height="1080.000000pt" viewBox="0 0 1080.000000 1080.000000"
 preserveAspectRatio="xMidYMid meet">

<g transform="translate(0.000000,1080.000000) scale(0.100000,-0.100000)"
fill="#000000" stroke="none">
<path d="M4010 8280 c-505 -34 -1040 -129 -1531 -270 -157 -45 -205 -68 -261
-127 -63 -65 -91 -135 -96 -235 -3 -49 -9 -91 -16 -96 -6 -4 -56 -19 -111 -31
-206 -48 -477 -131 -548 -168 -87 -45 -229 -181 -275 -263 -17 -30 -43 -91
-59 -135 l-28 -80 0 -1745 0 -1745 27 -67 c70 -175 205 -297 379 -343 78 -21
201 -19 290 5 551 149 865 211 1299 256 211 22 664 27 847 9 376 -36 743 -129
1346 -341 770 -271 1020 -352 1325 -428 313 -79 561 -122 867 -151 145 -13
772 -15 835 -2 14 3 61 8 105 12 182 15 285 47 397 121 88 59 167 148 217 243
65 126 74 173 80 461 l6 254 174 18 c155 15 182 21 237 48 72 35 116 81 153
160 l26 55 3 1733 c2 1254 -1 1745 -9 1775 -15 56 -81 121 -138 137 -36 9 -70
9 -175 -4 -564 -67 -1143 -32 -1719 104 -321 76 -589 160 -1261 397 -795 279
-1181 383 -1601 428 -168 19 -611 27 -785 15z m-925 -367 c16 -54 29 -100 31
-101 1 -2 44 -14 94 -27 50 -13 94 -26 98 -29 10 -11 -12 -23 -63 -35 -135
-32 -120 -20 -157 -131 -18 -55 -36 -100 -40 -100 -4 0 -22 46 -40 102 l-33
102 -88 22 c-49 12 -91 25 -95 29 -10 10 14 21 94 41 41 10 79 23 83 29 5 5
21 48 36 95 15 47 30 88 32 93 11 19 22 -1 48 -90z m4542 -984 c12 -41 34
-121 49 -179 15 -58 30 -108 34 -113 3 -4 67 -23 141 -43 74 -19 151 -39 172
-45 69 -18 44 -34 -124 -80 -88 -24 -165 -46 -170 -49 -4 -3 -35 -89 -68 -190
-34 -106 -65 -185 -71 -185 -7 0 -38 80 -72 190 -33 105 -62 193 -66 196 -4 4
-78 23 -165 44 -145 34 -178 47 -163 62 5 5 76 26 288 83 l36 10 58 173 c64
193 71 210 87 204 6 -2 21 -37 34 -78z m-3542 -844 c149 -31 234 -89 284 -195
22 -47 26 -69 26 -145 -1 -107 -20 -158 -86 -230 -88 -96 -192 -135 -384 -144
l-130 -6 -5 -175 -5 -175 -152 -3 -153 -3 0 544 c0 299 3 547 8 552 14 14 510
-2 597 -20z m940 -140 c204 -64 373 -119 377 -123 7 -7 -61 -234 -73 -246 -3
-3 -105 26 -227 64 -122 39 -227 70 -234 70 -13 0 -54 -118 -44 -127 3 -3 96
-34 207 -69 111 -35 206 -67 210 -71 6 -7 -59 -234 -71 -247 -3 -3 -97 24
-209 60 -113 35 -209 64 -216 64 -11 0 -45 -92 -45 -122 0 -10 67 -35 235 -88
129 -40 235 -78 235 -85 0 -19 -87 -229 -97 -232 -8 -3 -743 223 -750 231 -5
5 320 1036 327 1036 3 0 172 -52 375 -115z m-1928 63 c69 -25 145 -95 179
-164 15 -30 25 -57 22 -59 -2 -3 -62 -25 -132 -50 l-127 -45 -25 30 c-49 58
-155 60 -210 5 -28 -28 -30 -42 -9 -72 17 -24 74 -39 185 -49 233 -19 343 -77
391 -203 28 -76 24 -186 -11 -254 -30 -60 -120 -147 -187 -181 -62 -31 -175
-62 -258 -70 -150 -15 -296 36 -365 128 -36 47 -78 141 -69 150 6 5 260 86
270 86 5 0 15 -13 24 -30 28 -53 96 -74 189 -58 105 19 148 91 72 123 -18 8
-83 18 -146 24 -259 24 -364 84 -406 230 -35 119 -1 254 86 341 126 126 362
179 527 118z m2716 -374 c61 -31 113 -57 115 -59 1 -1 29 -156 61 -344 32
-188 60 -344 63 -346 2 -2 60 108 128 245 69 138 128 250 132 250 10 0 219
-98 245 -115 22 -15 21 -17 -219 -497 -132 -266 -242 -484 -243 -486 -2 -2
-59 23 -127 56 l-124 59 -58 344 c-32 189 -60 346 -62 348 -7 7 -10 1 -133
-252 -66 -136 -122 -247 -126 -247 -10 0 -265 130 -265 135 0 16 482 965 490
965 6 0 61 -25 123 -56z m-3978 -212 c26 -92 50 -171 54 -175 4 -4 83 -28 175
-52 93 -24 170 -46 173 -49 18 -18 -23 -36 -166 -75 -89 -24 -165 -49 -169
-55 -5 -6 -34 -91 -66 -188 -31 -98 -61 -178 -66 -178 -14 0 -24 23 -80 205
-29 94 -57 174 -61 179 -4 5 -78 26 -165 47 -86 21 -162 43 -167 48 -13 13 -7
16 177 66 l148 41 63 181 c34 99 66 187 70 193 15 23 31 -15 80 -188z m5049
-312 c367 -124 508 -217 590 -390 26 -55 31 -80 34 -161 12 -278 -163 -520
-418 -579 -88 -21 -222 -15 -320 14 -167 49 -465 154 -464 162 1 5 77 237 169
517 137 417 169 507 184 507 10 0 111 -32 225 -70z m1211 -1407 c15 -49 29
-96 31 -105 5 -17 32 -27 152 -58 23 -6 42 -14 42 -19 0 -4 -41 -19 -92 -32
l-92 -25 -34 -102 c-18 -56 -37 -100 -41 -98 -4 3 -20 47 -36 98 -16 51 -32
97 -35 101 -4 4 -46 17 -93 28 -49 12 -87 26 -87 33 0 6 40 22 88 34 l89 23
22 72 c28 87 48 137 55 137 3 0 17 -39 31 -87z"/>
<path d="M3798 5844 c-5 -4 -8 -56 -8 -116 l0 -108 83 0 c137 0 199 28 211 94
9 46 -9 89 -46 111 -24 14 -58 20 -132 23 -56 2 -104 1 -108 -4z"/>
<path d="M6853 4804 c-4 -11 -42 -125 -84 -254 l-77 -235 82 -29 c61 -21 101
-29 162 -30 73 -1 85 2 130 29 39 25 56 44 84 99 32 62 35 77 35 152 0 75 -2
86 -30 126 -36 51 -112 99 -204 129 -36 12 -72 24 -78 27 -7 2 -16 -4 -20 -14z"/>
</g>
</svg>
